<?xml version="1.0" encoding="UTF-8" standalone="no"?>
<!-- Created with Inkscape (http://www.inkscape.org/) -->

<svg
   xmlns:dc="http://purl.org/dc/elements/1.1/"
   xmlns:cc="http://creativecommons.org/ns#"
   xmlns:rdf="http://www.w3.org/1999/02/22-rdf-syntax-ns#"
   xmlns:svg="http://www.w3.org/2000/svg"
   xmlns="http://www.w3.org/2000/svg"
   xmlns:xlink="http://www.w3.org/1999/xlink"
   xmlns:sodipodi="http://sodipodi.sourceforge.net/DTD/sodipodi-0.dtd"
   xmlns:inkscape="http://www.inkscape.org/namespaces/inkscape"
   width="144.22289mm"
   height="147.64006mm"
   viewBox="0 0 511.02597 523.13407"
   id="svg2"
   version="1.1"
   inkscape:version="0.91 r13725"
   inkscape:export-filename="D:\Unitiy projects\Strategy Game\Assets\Textures\Lancers flag.png"
   inkscape:export-xdpi="300"
   inkscape:export-ydpi="300"
   sodipodi:docname="Lancer flag.svg">
  <defs
     id="defs4">
    <linearGradient
       inkscape:collect="always"
       id="linearGradient4175">
      <stop
         style="stop-color:#ffef00;stop-opacity:1"
         offset="0"
         id="stop4177" />
      <stop
         style="stop-color:#fff400;stop-opacity:0.02030457"
         offset="1"
         id="stop4179" />
    </linearGradient>
    <radialGradient
       inkscape:collect="always"
       xlink:href="#linearGradient4175"
       id="radialGradient4181"
       cx="-850.16742"
       cy="410.33688"
       fx="-850.16742"
       fy="410.33688"
       r="257.14285"
       gradientTransform="matrix(1,0,0,1.0194444,0,-7.9787729)"
       gradientUnits="userSpaceOnUse" />
  </defs>
  <sodipodi:namedview
     id="base"
     pagecolor="#ffffff"
     bordercolor="#666666"
     borderopacity="1.0"
     inkscape:pageopacity="0.0"
     inkscape:pageshadow="2"
     inkscape:zoom="0.7"
     inkscape:cx="233.36897"
     inkscape:cy="256.69098"
     inkscape:document-units="px"
     inkscape:current-layer="layer1"
     showgrid="false"
     fit-margin-top="0"
     fit-margin-left="0"
     fit-margin-right="0"
     fit-margin-bottom="0"
     inkscape:window-width="1366"
     inkscape:window-height="705"
     inkscape:window-x="-8"
     inkscape:window-y="-8"
     inkscape:window-maximized="1" />
  <metadata
     id="metadata7">
    <rdf:RDF>
      <cc:Work
         rdf:about="">
        <dc:format>image/svg+xml</dc:format>
        <dc:type
           rdf:resource="http://purl.org/dc/dcmitype/StillImage" />
        <dc:title></dc:title>
      </cc:Work>
    </rdf:RDF>
  </metadata>
  <g
     inkscape:label="Livello 1"
     inkscape:groupmode="layer"
     id="layer1"
     transform="translate(1107.3103,-147.91708)">
    <g
       id="g4183">
      <ellipse
         ry="262.14285"
         rx="257.14285"
         cy="410.33688"
         cx="-850.16742"
         id="path4173"
         style="opacity:1;fill:url(#radialGradient4181);fill-opacity:1;stroke:none;stroke-width:4;stroke-linejoin:miter;stroke-miterlimit:4;stroke-dasharray:none;stroke-dashoffset:0;stroke-opacity:0.98823529" />
      <g
         transform="translate(57.142857,-38.571428)"
         id="g4168">
        <path
           style="fill:none;fill-rule:evenodd;stroke:#000000;stroke-width:1px;stroke-linecap:butt;stroke-linejoin:miter;stroke-opacity:1"
           d="m -1034.4532,311.05115 171.42861,0 0,205.71429 -40.71428,80.71428 -85.71429,0 -44.99994,-86.42857 z"
           id="path4135"
           inkscape:connector-curvature="0"
           sodipodi:nodetypes="ccccccc" />
        <path
           style="opacity:1;fill:#a0a0a0;fill-opacity:1;stroke:none;stroke-width:4;stroke-linejoin:miter;stroke-miterlimit:4;stroke-dasharray:none;stroke-dashoffset:0;stroke-opacity:0.98823529"
           d="m 116.81803,445.72718 c -0.85005,-1.66964 -10.98158,-21.1404 -22.514513,-43.26836 l -20.968962,-40.23263 0,-99.23165 0,-99.23164 84.999995,0 85,0 0,102.61263 0,102.61264 -20.17857,39.8833 -20.17857,39.8833 -42.30691,0.004 -42.30691,0.004 -1.54556,-3.03572 0,-4.5e-4 z m 99.4339,-43.03571 17.77069,-35 0.0131,-95.89286 0.0131,-95.89286 -74.64286,0 -74.642854,0 0,93.50478 0,93.50477 18.667524,35.95952 c 10.26714,19.77773 19.11571,36.68558 19.66349,37.573 l 0.99597,1.61351 37.19557,-0.18493 37.19557,-0.18493 17.77068,-35 z"
           id="path4154"
           inkscape:connector-curvature="0"
           transform="translate(-1107.3103,147.91708)" />
        <path
           style="opacity:1;fill:#492400;fill-opacity:1;stroke:none;stroke-width:4;stroke-linejoin:miter;stroke-miterlimit:4;stroke-dasharray:none;stroke-dashoffset:0;stroke-opacity:0.98823529"
           d="m -987.16943,580.72949 c -1.79533,-3.3445 -10.77565,-20.59384 -19.95627,-38.33189 l -16.692,-32.25098 0,-94.59205 0,-94.59202 74.99998,0 75.00001,0 0,97.40833 0,97.40834 -17.72424,35.04401 -17.72424,35.044 -24.34766,0 c -13.3912,0 -30.18498,0.21221 -37.3195,0.47158 l -12.97185,0.47159 -3.26423,-6.08091 z"
           id="path4156"
           inkscape:connector-curvature="0" />
      </g>
      <g
         transform="translate(-11.428571,-5.7142857)"
         id="g4164">
        <rect
           style="opacity:1;fill:#492400;fill-opacity:1;stroke:none;stroke-width:4;stroke-linejoin:miter;stroke-miterlimit:4;stroke-dasharray:none;stroke-dashoffset:0;stroke-opacity:0.98823529"
           id="rect4158"
           width="8.5714283"
           height="299.95285"
           x="-747.3103"
           y="299.66974" />
        <path
           style="opacity:1;fill:#a69f9f;fill-opacity:1;stroke:none;stroke-width:4;stroke-linejoin:miter;stroke-miterlimit:4;stroke-dasharray:none;stroke-dashoffset:0;stroke-opacity:0.98823529"
           d="m -752.93697,296.16612 c 0.23359,-2.29179 2.62608,-26.03011 5.31665,-52.75184 2.69058,-26.72172 4.94686,-48.42737 5.01398,-48.23478 0.11018,0.3162 10.53648,104.0447 10.53648,104.82471 0,0.18083 -1.99493,0.32879 -4.43318,0.32879 -2.8297,0 -4.43319,-0.18269 -4.43319,-0.50508 0,-0.29683 -0.65655,-0.50508 -1.59236,-0.50508 -0.8758,0 -1.64483,0.22729 -1.70895,0.50508 -0.0725,0.3139 -1.82133,0.50508 -4.62035,0.50508 l -4.50377,0 0.42469,-4.16688 z"
           id="path4162"
           inkscape:connector-curvature="0" />
      </g>
    </g>
  </g>
</svg>
